<?xml version="1.0" encoding="UTF-8"?>
<svg width="39px" height="42px" viewBox="0 0 39 42" version="1.1" xmlns="http://www.w3.org/2000/svg" xmlns:xlink="http://www.w3.org/1999/xlink">
    <!-- Generator: sketchtool 52.2 (67145) - http://www.bohemiancoding.com/sketch -->
    <title>4951F625-3F5F-4A3F-AA26-7083D9F8D83C</title>
    <desc>Created with sketchtool.</desc>
    <g id="Range" stroke="none" stroke-width="1" fill="none" fill-rule="evenodd">
        <g id="PDP---Range-Default" transform="translate(-144.000000, -744.000000)" fill="#EE405A" fill-rule="nonzero">
            <g id="Callout-Bar" transform="translate(0.000000, 715.000000)">
                <g id="Group" transform="translate(144.000000, 29.000000)">
                    <g id="30-Day-Guarantee">
                        <g id="Compass-2">
                            <path d="M21,25.9 C20.86,25.9 20.58,25.76 20.44,25.76 L16.94,22.26 C16.8,21.98 16.8,21.84 16.8,21.7 C16.8,21.56 16.94,21.28 17.08,21.14 L27.58,14.14 C27.86,14 28.28,14 28.42,14.28 C28.7,14.56 28.7,14.84 28.56,15.12 L21.56,25.62 C21.42,25.76 21.28,25.9 21,25.9 C21,25.9 21,25.9 21,25.9 Z M18.62,21.84 L20.86,24.08 L25.48,17.22 L18.62,21.84 Z" id="Shape"></path>
                            <path d="M11.2,32.2 C11.06,32.2 10.78,32.06 10.64,32.06 C10.36,31.78 10.36,31.5 10.5,31.22 L16.8,21.42 C16.94,21.14 17.5,21 17.78,21.14 C18.06,21.28 18.2,21.84 18.06,22.12 L13.44,29.26 L20.58,24.64 C20.86,24.36 21.28,24.5 21.56,24.92 C21.7,25.2 21.7,25.62 21.28,25.9 L11.48,32.2 C11.48,32.2 11.34,32.2 11.2,32.2 Z" id="Shape"></path>
                            <path d="M19.6,9.8 C19.18,9.8 18.9,9.52 18.9,9.1 L18.9,4.9 C18.9,4.48 19.18,4.2 19.6,4.2 C20.02,4.2 20.3,4.48 20.3,4.9 L20.3,9.1 C20.3,9.52 20.02,9.8 19.6,9.8 Z" id="Shape"></path>
                            <path d="M19.6,42 C19.18,42 18.9,41.72 18.9,41.3 L18.9,37.1 C18.9,36.68 19.18,36.4 19.6,36.4 C20.02,36.4 20.3,36.68 20.3,37.1 L20.3,41.3 C20.3,41.72 20.02,42 19.6,42 Z" id="Shape"></path>
                            <path d="M5.6,23.8 L1.4,23.8 C0.98,23.8 0.7,23.52 0.7,23.1 C0.7,22.68 0.98,22.4 1.4,22.4 L5.6,22.4 C6.02,22.4 6.3,22.68 6.3,23.1 C6.3,23.52 6.02,23.8 5.6,23.8 Z" id="Shape"></path>
                            <path d="M37.8,23.8 L33.6,23.8 C33.18,23.8 32.9,23.52 32.9,23.1 C32.9,22.68 33.18,22.4 33.6,22.4 L37.8,22.4 C38.22,22.4 38.5,22.68 38.5,23.1 C38.5,23.52 38.22,23.8 37.8,23.8 Z" id="Shape"></path>
                            <path d="M19.6,42 C9.24,42 0.7,33.46 0.7,23.1 C0.7,12.74 9.24,4.2 19.6,4.2 C29.96,4.2 38.5,12.74 38.5,23.1 C38.5,33.46 29.96,42 19.6,42 Z M19.6,5.6 C9.94,5.6 2.1,13.44 2.1,23.1 C2.1,32.76 9.94,40.6 19.6,40.6 C29.26,40.6 37.1,32.76 37.1,23.1 C37.1,13.44 29.26,5.6 19.6,5.6 Z" id="Shape"></path>
                            <path d="M23.8,5.6 C23.38,5.6 23.1,5.32 23.1,4.9 C23.1,2.94 21.56,1.4 19.6,1.4 C17.64,1.4 16.1,2.94 16.1,4.9 C16.1,5.32 15.82,5.6 15.4,5.6 C14.98,5.6 14.7,5.32 14.7,4.9 C14.7,2.24 16.94,0 19.6,0 C22.26,0 24.5,2.24 24.5,4.9 C24.5,5.32 24.22,5.6 23.8,5.6 Z" id="Shape"></path>
                        </g>
                    </g>
                </g>
            </g>
        </g>
    </g>
</svg>