<?xml version="1.0" encoding="UTF-8"?>
<svg width="45px" height="42px" viewBox="0 0 45 42" version="1.1" xmlns="http://www.w3.org/2000/svg" xmlns:xlink="http://www.w3.org/1999/xlink">
    <!-- Generator: sketchtool 52.2 (67145) - http://www.bohemiancoding.com/sketch -->
    <title>20098609-13EC-470A-A587-78193E6048B6</title>
    <desc>Created with sketchtool.</desc>
    <g id="Range" stroke="none" stroke-width="1" fill="none" fill-rule="evenodd">
        <g id="PDP---Range-Default" transform="translate(-486.000000, -744.000000)" fill="#EE405A" fill-rule="nonzero">
            <g id="Callout-Bar" transform="translate(0.000000, 715.000000)">
                <g id="Group" transform="translate(144.000000, 29.000000)">
                    <g id="Extended-Warranty" transform="translate(342.000000, 0.000000)">
                        <g id="FAQ">
                            <g id="Chat">
                                <path d="M22.4985,0 C10.092,0 -0.0015,8.4015 0,18.726 C0,24.066 2.7465,29.1195 7.5615,32.685 L3.0915,40.8915 C2.9235,41.1975 2.9895,41.577 3.249,41.8095 C3.3885,41.9355 3.5685,42 3.7485,42 C3.8985,42 4.0485,41.955 4.1775,41.865 L13.017,35.694 C16.0245,36.861 19.2105,37.4535 22.4985,37.4535 C34.905,37.4535 44.9985,29.052 44.9985,18.726 C44.9985,8.4015 34.905,0 22.4985,0 Z M22.5,35.9535 C19.2675,35.9535 16.14,35.3475 13.203,34.152 C12.966,34.0575 12.699,34.0875 12.4905,34.2315 L5.931,38.811 L9.195,32.82 C9.378,32.484 9.279,32.064 8.964,31.845 C4.2195,28.548 1.4985,23.766 1.4985,18.726 C1.4985,9.228 10.9185,1.5 22.4985,1.5 C34.0785,1.5 43.4985,9.228 43.4985,18.726 C43.4985,28.2255 34.08,35.9535 22.5,35.9535 Z" id="Shape"></path>
                            </g>
                            <g id="Group-2" transform="translate(16.800000, 7.350000)" stroke="#EE405A" stroke-width="0.5">
                                <path d="M6.01223147,18.0409091 C5.62784897,18.0409091 5.31588636,17.7465353 5.31588636,17.3838247 L5.31588636,16.116966 C5.31588636,14.6017294 5.94120427,13.1758562 7.07763948,12.1048087 L9.28087541,10.0257937 C10.1540922,9.20180984 10.6345703,8.10710724 10.6345703,6.94143953 L10.6345703,5.67458082 C10.6345703,3.26965194 8.56224726,1.31416879 6.01362416,1.31416879 C3.46500106,1.31416879 1.39267801,3.26965194 1.39267801,5.67458082 L1.39267801,7.34751768 C1.39267801,7.71022827 1.0807154,8.00460207 0.696332902,8.00460207 C0.311950402,8.00460207 -1.22070312e-05,7.71022827 -1.22070312e-05,7.34751768 L-1.22070312e-05,5.67458082 C-1.22070312e-05,2.54554494 2.69902144,0 6.01362416,0 C9.32822688,0 12.0272605,2.54554494 12.0272605,5.67458082 L12.0272605,6.94143953 C12.0272605,8.45667614 11.4019426,9.88254927 10.2655074,10.954911 L8.06227147,13.033926 C7.1890547,13.8565957 6.70857658,14.9526124 6.70857658,16.116966 L6.70857658,17.3838247 C6.70857658,17.7465353 6.39661397,18.0409091 6.01223147,18.0409091 Z" id="Shape"></path>
                                <path d="M6.0343878,22.094235 C5.46948659,22.094235 5.00999756,21.6345439 5.00999756,21.0702955 C5.00999756,20.5051457 5.46948659,20.0454545 6.0343878,20.0454545 C6.59928902,20.0454545 7.05877805,20.5051457 7.05877805,21.0702955 C7.05877805,21.6345439 6.59928902,22.094235 6.0343878,22.094235 Z M6.0343878,20.9468098 C5.96681589,20.9468098 5.91095644,21.0026938 5.91095644,21.0702955 C5.91095644,21.2054988 6.15691821,21.2054988 6.15691821,21.0702955 C6.15781917,21.0026938 6.10195972,20.9468098 6.0343878,20.9468098 Z" id="Shape"></path>
                            </g>
                        </g>
                    </g>
                </g>
            </g>
        </g>
    </g>
</svg>