<svg xmlns="http://www.w3.org/2000/svg" width="57" height="43" viewBox="0 0 57 43">
    <path fill="#323333" fill-rule="nonzero" d="M56.149 3.006L34.397 0c-2.126 0-4.556.83-5.882 2.064C27.202.826 24.76.008 22.497.008h-.026l-21.62 3A.998.998 0 0 0 0 4v37.998c0 .29.124.564.336.754.212.19.5.278.778.238l21.489-2.992c2.779 0 4.874 1.518 4.913 2 0 .552.44 1.002.983 1.002a.968.968 0 0 0 .692-.294c.012-.012.018-.028.03-.042.07-.08.135-.168.178-.268.016-.038.018-.082.03-.122.021-.076.05-.15.055-.234V42c.067-.566 2.303-2.004 4.782-2.012l21.62 3a.967.967 0 0 0 .778-.238c.212-.188.336-.462.336-.752V4a1.005 1.005 0 0 0-.851-.994zM27.516 39.35c-1.374-.82-3.256-1.328-5.045-1.346L1.965 40.852V4.87l20.638-2.872c2.779 0 4.874 1.518 4.913 2V39.35zm27.517 1.502l-20.638-2.854c-1.69 0-3.547.538-4.913 1.372V4c.067-.566 2.303-2.004 4.782-2.012L55.033 4.87v35.982zM22.513 7.004C22 7.052 9.952 8.188 6.64 9.03a1 1 0 0 0-.715 1.21.982.982 0 0 0 1.19.73c3.17-.806 15.453-1.962 15.577-1.974a.996.996 0 0 0 .888-1.088.995.995 0 0 0-1.069-.904zm0 15.999C22 23.05 9.952 24.187 6.64 25.029a1.004 1.004 0 0 0-.715 1.212.983.983 0 0 0 1.19.728c3.17-.806 15.453-1.962 15.577-1.974a.996.996 0 0 0 .888-1.088.991.991 0 0 0-1.069-.904zm0 8C22 31.05 9.952 32.187 6.64 33.028a1.004 1.004 0 0 0-.715 1.212.983.983 0 0 0 1.19.728c3.17-.806 15.453-1.962 15.577-1.974a.996.996 0 0 0 .888-1.087c-.049-.55-.536-.96-1.069-.904zm0-16C22 15.051 9.952 16.187 6.64 17.03a1.004 1.004 0 0 0-.715 1.212.983.983 0 0 0 1.19.728c3.17-.806 15.453-1.962 15.577-1.974a.996.996 0 0 0 .888-1.088.993.993 0 0 0-1.069-.904zm27.844 18.025c-3.31-.841-15.36-1.977-15.871-2.025-.537-.054-1.018.354-1.07.904a.994.994 0 0 0 .889 1.087c.124.012 12.41 1.17 15.576 1.974a.983.983 0 0 0 1.191-.728.999.999 0 0 0-.715-1.212zM33.417 7.906a.994.994 0 0 0 .888 1.088c.124.012 12.41 1.17 15.576 1.973.08.022.16.032.238.032a.983.983 0 0 0 .953-.757 1 1 0 0 0-.715-1.212c-3.31-.842-15.36-1.978-15.871-2.026a.994.994 0 0 0-1.07.902zm16.94 9.123c-3.31-.842-15.36-1.978-15.871-2.026a.993.993 0 0 0-1.07.904.994.994 0 0 0 .889 1.088c.124.012 12.41 1.17 15.576 1.974a.983.983 0 0 0 1.191-.728.999.999 0 0 0-.715-1.212zm0 8c-3.31-.842-15.36-1.978-15.871-2.026a.991.991 0 0 0-1.07.904.994.994 0 0 0 .889 1.088c.124.012 12.41 1.17 15.576 1.974a.983.983 0 0 0 1.191-.728.999.999 0 0 0-.715-1.212z"/>
</svg>
