<svg xmlns="http://www.w3.org/2000/svg" width="64" height="57" viewBox="0 0 64 57">
    <path fill="#333434" fill-rule="nonzero" d="M29.554 6.642a1.075 1.075 0 0 0-1.509 0l-6.4 6.334a1.049 1.049 0 0 0 0 1.492 1.077 1.077 0 0 0 1.508 0l6.4-6.333a1.049 1.049 0 0 0 0-1.493zm14.933 10.556a1.075 1.075 0 0 0-1.508 0l-8.534 8.445a1.049 1.049 0 0 0 0 1.492 1.077 1.077 0 0 0 1.509 0l8.533-8.444a1.049 1.049 0 0 0 0-1.493zm19.201 14.16a1.049 1.049 0 0 0 0-1.493 1.075 1.075 0 0 0-1.508 0L48.313 43.588c-.045.044-.064.099-.1.148-1.25-.938-2.791-1.514-4.479-1.514-1.664 0-3.187.56-4.43 1.473-.007-.006-.01-.014-.014-.02L6.223 10.95a1.078 1.078 0 0 0-1.49-.017l-4.4 4.134a1.047 1.047 0 0 0-.04 1.493c.406.426 1.083.439 1.51.04l3.645-3.427L37.78 45.17c.004.004.01.006.017.01-.947 1.238-1.53 2.762-1.53 4.432 0 4.074 3.35 7.389 7.467 7.389 4.118 0 7.467-3.315 7.467-7.39 0-1.669-.582-3.193-1.53-4.43.05-.034.107-.055.15-.1l13.867-13.722zm-19.954 23.53c-2.942 0-5.333-2.368-5.333-5.277 0-2.91 2.391-5.278 5.333-5.278s5.334 2.369 5.334 5.278c0 2.91-2.392 5.278-5.334 5.278zm15.687-27.753a1.049 1.049 0 0 0 0-1.492L44.487 10.865a1.075 1.075 0 0 0-1.508 0l-1.378 1.363L29.556.308a1.075 1.075 0 0 0-1.509 0l-12.8 12.668a1.049 1.049 0 0 0 0 1.492L42.98 41.914a1.077 1.077 0 0 0 1.508 0l14.932-14.779zM17.508 13.721L28.8 2.547 40.093 13.72 28.8 24.895 17.508 13.721zm12.8 12.667l12.046-11.92 1.38-1.366L57.16 26.388 43.734 39.674 30.31 26.388z"/>
</svg>
