<?xml version="1.0" encoding="UTF-8"?>
<svg width="47px" height="35px" viewBox="0 0 47 35" version="1.1" xmlns="http://www.w3.org/2000/svg" xmlns:xlink="http://www.w3.org/1999/xlink">
    <!-- Generator: sketchtool 52.2 (67145) - http://www.bohemiancoding.com/sketch -->
    <title>DDE8E174-1747-4661-8913-744EEC14C2DA</title>
    <desc>Created with sketchtool.</desc>
    <g id="Range" stroke="none" stroke-width="1" fill="none" fill-rule="evenodd">
        <g id="PDP---Range-Default" transform="translate(-775.000000, -748.000000)" fill="#EE405A" fill-rule="nonzero">
            <g id="Callout-Bar" transform="translate(0.000000, 715.000000)">
                <g id="Group" transform="translate(144.000000, 29.000000)">
                    <g id="Quick-Start-Guid" transform="translate(631.000000, 0.000000)">
                        <path d="M46.2982656,6.44663039 L28.3627116,4 C26.6091859,4 24.6060825,4.67554997 23.5121548,5.67992186 C22.4295714,4.67229431 20.4167443,4.00651133 18.5497741,4.00651133 L18.5287059,4.00651133 L0.701734423,6.44825822 C0.299817248,6.50523231 0,6.84870471 0,7.25566253 L0,38.1844565 C0,38.4204921 0.102099928,38.643505 0.277128375,38.7981489 C0.452156822,38.9527929 0.688769353,39.0244175 0.918899348,38.9918608 L18.6372884,36.5566253 C20.9288645,36.5566253 22.6564601,37.7921492 22.6888728,38.1844565 C22.6888728,38.633738 23.0518948,39 23.4991897,39 C23.7228371,39 23.9237957,38.9072136 24.0696528,38.7607088 C24.0793766,38.7509418 24.0842385,38.7379192 24.0939623,38.7265243 C24.1523051,38.6614111 24.205786,38.5897865 24.24144,38.508395 C24.254405,38.4774662 24.2560257,38.4416539 24.2657495,38.4090973 C24.2835764,38.3472397 24.3078859,38.2870099 24.3111272,38.218641 L24.3111272,38.1860844 C24.3662288,37.7254081 26.21051,36.5549974 28.2541292,36.5484861 L46.0811007,38.990233 C46.3128513,39.0227896 46.5462225,38.9511651 46.7228716,38.7965211 C46.8979001,38.643505 47,38.4204921 47,38.1844565 L47,7.25566253 C46.9983794,6.84870471 46.6985621,6.50523231 46.2982656,6.44663039 Z M22.6888728,36.0292079 C21.5560498,35.3617971 20.0034826,34.948328 18.5287059,34.9336775 L1.62063377,37.2517092 L1.62063377,7.96376913 L18.6372884,5.62620343 C20.9288645,5.62620343 22.6564601,6.86172736 22.6888728,7.2540347 L22.6888728,36.0292079 Z M45.3777456,37.2517092 L28.361091,34.928794 C26.967346,34.928794 25.435847,35.3666806 24.3095066,36.0454863 L24.3095066,7.25566253 C24.3646081,6.79498628 26.2088893,5.6245756 28.2525085,5.61806428 L45.3777456,7.96376913 L45.3777456,37.2517092 Z M18.5627392,9.70066509 C18.1413744,9.73973304 8.20688942,10.6643412 5.47612151,11.3496582 C5.0434123,11.457095 4.77924899,11.8982373 4.88621082,12.3344961 C4.97696631,12.7072694 5.3075756,12.953072 5.6722182,12.953072 C5.73704355,12.953072 5.8018689,12.9449328 5.86831489,12.9286545 C8.48077652,12.2726385 18.6097376,11.331752 18.7118375,11.321985 C19.1575118,11.2812892 19.4848798,10.8840984 19.444364,10.4364448 C19.4038481,9.98879122 19.001931,9.66322497 18.5627392,9.70066509 Z M18.5627392,22.7233152 C18.1413744,22.7623831 8.20688942,23.6869913 5.47612151,24.3723083 C5.0434123,24.481373 4.77924899,24.9225152 4.88621082,25.358774 C4.97696631,25.7299195 5.3075756,25.9757221 5.6722182,25.9757221 C5.73704355,25.9757221 5.8018689,25.9675829 5.86831489,25.9513046 C8.48077652,25.2952886 18.6097376,24.3544021 18.7118375,24.3446351 C19.1575118,24.3039394 19.4848798,23.9067485 19.444364,23.4590949 C19.4038481,23.0114413 19.001931,22.6809916 18.5627392,22.7233152 Z M18.5627392,29.2346402 C18.1413744,29.2737082 8.20688942,30.1983164 5.47612151,30.8836333 C5.0434123,30.992698 4.77924899,31.4338403 4.88621082,31.8700991 C4.97696631,32.2412446 5.3075756,32.4870471 5.6722182,32.4870471 C5.73704355,32.4870471 5.8018689,32.478908 5.86831489,32.4626296 C8.48077652,31.8066136 18.6097376,30.8657272 18.7118375,30.8559602 C19.1575118,30.8152644 19.4848798,30.4180736 19.444364,29.97042 C19.4038481,29.5227664 19.001931,29.189061 18.5627392,29.2346402 Z M18.5627392,16.2119901 C18.1413744,16.2510581 8.20688942,17.1756662 5.47612151,17.8609832 C5.0434123,17.9700479 4.77924899,18.4111902 4.88621082,18.847449 C4.97696631,19.2185945 5.3075756,19.464397 5.6722182,19.464397 C5.73704355,19.464397 5.8018689,19.4562578 5.86831489,19.4399795 C8.48077652,18.7839635 18.6097376,17.8430771 18.7118375,17.8333101 C19.1575118,17.7926143 19.4848798,17.3954235 19.444364,16.9477699 C19.4038481,16.5001163 19.001931,16.1712944 18.5627392,16.2119901 Z M41.5222579,30.8836333 C38.7931106,30.1983164 28.8570049,29.2737082 28.4356402,29.2346402 C27.9932071,29.1906888 27.5961519,29.5227664 27.5540154,29.97042 C27.5118789,30.4180736 27.8408676,30.8152644 28.2865418,30.8559602 C28.3886418,30.8657272 38.5192235,31.8082415 41.1300645,32.4626296 C41.1965105,32.478908 41.2613358,32.4870471 41.3261612,32.4870471 C41.6908038,32.4870471 42.0214131,32.2412446 42.1121685,31.8700991 C42.220751,31.4322125 41.9565877,30.9910702 41.5222579,30.8836333 Z M27.5540154,10.434817 C27.5118789,10.8824706 27.8408676,11.2796614 28.2865418,11.3203572 C28.3886418,11.3301242 38.5192235,12.2726385 41.1300645,12.9270266 C41.1965105,12.9449328 41.2613358,12.953072 41.3261612,12.953072 C41.6908038,12.953072 42.0214131,12.7072694 42.1121685,12.3361239 C42.220751,11.8998651 41.9565877,11.4587229 41.5222579,11.3496582 C38.7931106,10.6643412 28.8570049,9.73973304 28.4356402,9.70066509 C27.9932071,9.66322497 27.5961519,9.98879122 27.5540154,10.434817 Z M41.5222579,17.8609832 C38.7931106,17.1756662 28.8570049,16.2510581 28.4356402,16.2119901 C27.9932071,16.1729222 27.5961519,16.5001163 27.5540154,16.9477699 C27.5118789,17.3954235 27.8408676,17.7926143 28.2865418,17.8333101 C28.3886418,17.8430771 38.5192235,18.7855914 41.1300645,19.4399795 C41.1965105,19.4562578 41.2613358,19.464397 41.3261612,19.464397 C41.6908038,19.464397 42.0214131,19.2185945 42.1121685,18.847449 C42.220751,18.4095623 41.9565877,17.9684201 41.5222579,17.8609832 Z M41.5222579,24.3723083 C38.7931106,23.6869913 28.8570049,22.7623831 28.4356402,22.7233152 C27.9932071,22.6826194 27.5961519,23.0114413 27.5540154,23.4590949 C27.5118789,23.9067485 27.8408676,24.3039394 28.2865418,24.3446351 C28.3886418,24.3544021 38.5192235,25.2969164 41.1300645,25.9513046 C41.1965105,25.9675829 41.2613358,25.9757221 41.3261612,25.9757221 C41.6908038,25.9757221 42.0214131,25.7299195 42.1121685,25.358774 C42.220751,24.9208874 41.9565877,24.4797451 41.5222579,24.3723083 Z" id="Shape"></path>
                    </g>
                </g>
            </g>
        </g>
    </g>
</svg>