<svg id="Layer_1" data-name="Layer 1" xmlns="http://www.w3.org/2000/svg" viewBox="0 0 59.82 60.99"><title>logo-energy-star</title><rect width="59.82" height="60.99" fill="#fff"/><polygon points="58.16 59.2 1.41 59.2 1.41 47.02 58.16 47.02 58.16 59.2 58.16 59.2" fill="#00adee"/><path d="M29.78,6.82A35,35,0,0,1,58.16,21.38V1.58H1.41v19.8A35,35,0,0,1,29.78,6.82h0Z" fill="#00adee"/><path d="M29.78,8.22A34.11,34.11,0,0,0,1.41,23.41V45.63H58.16V23.42A34.11,34.11,0,0,0,29.78,8.22h0Z" fill="#00adee"/><path d="M29.78,8.22a34.11,34.11,0,0,1,28.38,15.2v-2a34.93,34.93,0,0,0-56.75,0v2A34.11,34.11,0,0,1,29.78,8.22h0Z" fill="#fff"/><path d="M32.94,37.59a3.28,3.28,0,0,1,.21-1A12.41,12.41,0,0,1,36.41,32c-1.37,3.29-2.65,5.23-3.13,5.6a1.07,1.07,0,0,1-.32.18,0.61,0.61,0,0,1,0-.23h0Zm-3-5.54a10.52,10.52,0,0,1-2.51,4.15l-0.13.09A9.19,9.19,0,0,1,30,32.05h0Zm0.35-2.48A4.23,4.23,0,0,1,28.4,30.7a1.92,1.92,0,0,1,.22-0.64,3.43,3.43,0,0,0,1.72-.49h0Zm1.35-2.39a0.93,0.93,0,0,1,.35,0,0.61,0.61,0,0,1-.1.11,7.93,7.93,0,0,1-2.65,1.79,4.65,4.65,0,0,1,2.4-1.87h0Zm-9.93,1.54a0.72,0.72,0,0,1,.31-0.1,1.55,1.55,0,0,1-.57.75c-0.32.28-.62,0.54-0.9,0.76a3,3,0,0,1,1.16-1.41h0Zm-8.82-2.35a0.19,0.19,0,0,1,.21.11,0.5,0.5,0,0,1,0,.15,4,4,0,0,1-1.39,2.26,13.2,13.2,0,0,1-3.89,2.86c2.07-4,4.18-5.41,5-5.38h0ZM7,31.53a5.29,5.29,0,0,0-.28.66,6,6,0,0,1-3.9,0,0.46,0.46,0,0,0-.59.24,0.45,0.45,0,0,0,.24.59,6.8,6.8,0,0,0,4,.12s0,0.06,0,.1a1.52,1.52,0,0,0,.64,1.35c1,0.67,3.28.1,6.56-3.24a11.62,11.62,0,0,0-.53,1.95,0.49,0.49,0,0,0,0,.09,0.46,0.46,0,0,0,.28.43,0.63,0.63,0,0,0,.74-0.41l0.46-.68c0.39-.59,1.28-1.92,1.88-2.62a6.68,6.68,0,0,0-.15,1.22A1.42,1.42,0,0,0,17,32.69c0.37,0.21,1,.29,2.27-0.49a0.91,0.91,0,0,0,.46.5c0.83,0.38,2.4-.45,4-2a9,9,0,0,0-.43,1.08,0.92,0.92,0,0,0,0,.13,0.46,0.46,0,0,0,.27.42,0.64,0.64,0,0,0,.77-0.41l0.5-.71a27.67,27.67,0,0,1,1.93-2.6,2.42,2.42,0,0,0,1,1.22,2.26,2.26,0,0,0-.23.91,0.8,0.8,0,0,0,.35.7,1.74,1.74,0,0,0,1.73-.23c-2.12,2.11-3.1,4.2-3.13,5.13v0.05a0.8,0.8,0,0,0,.41.8,1.08,1.08,0,0,0,1.18-.3c1.59-1.27,2.76-4.28,3.35-6.12a17.88,17.88,0,0,1,2.8-1.86,3.58,3.58,0,0,0-.54,1.66,1.4,1.4,0,0,0,.07.46,0.85,0.85,0,0,0,.72.57c0.74,0.08,1.76-.7,3-2.18l-0.31.87c-3.34,2.63-4.84,5.45-5,7a2.91,2.91,0,0,0,0,.34,1.06,1.06,0,0,0,.47,1,1.14,1.14,0,0,0,1.32-.27c0.71-.54,2.4-3.18,4-7.53a26.21,26.21,0,0,1,9.09-4.35A0.45,0.45,0,0,0,47.28,26a0.46,0.46,0,0,0,0-.12,0.45,0.45,0,0,0-.56-0.31,28.27,28.27,0,0,0-8.32,3.74c0.26-.75.51-1.56,0.75-2.4a0.49,0.49,0,0,0,0-.12,0.44,0.44,0,0,0-.26-0.41,0.45,0.45,0,0,0-.56.16c-2.22,3.5-3.48,4.13-3.76,4.13a0.26,0.26,0,0,1,0-.14A4.59,4.59,0,0,1,36,28a0.44,0.44,0,0,0,.13-0.31A0.48,0.48,0,0,0,36,27.45a0.45,0.45,0,0,0-.54-0.16,19.28,19.28,0,0,0-3.67,2,0.71,0.71,0,0,1,0-.09s0-.07,0-0.11a0.45,0.45,0,0,0-.24-0.4h0c0.31-.24.62-0.51,1-0.82A1.16,1.16,0,0,0,33,27.07a0.78,0.78,0,0,0,0-.24,0.9,0.9,0,0,0-.8-0.57c-1-.11-2.55.72-4,2.79a1.86,1.86,0,0,1-.75-1.17l0-.11a0.43,0.43,0,0,0-.43-0.3,1.71,1.71,0,0,0-1.13.81,0.06,0.06,0,0,1,0,0,0.65,0.65,0,0,0,0-.19,0.45,0.45,0,0,0-.22-0.38,0.44,0.44,0,0,0-.59.11c-2.5,3.36-4.68,4.29-5,4.12a0.33,0.33,0,0,1,0-.09,1,1,0,0,1,0-.16c0.56-.4,1.21-0.92,2-1.6A2,2,0,0,0,23,28.58a0.85,0.85,0,0,0-.07-0.35,0.88,0.88,0,0,0-.94-0.5c-0.92.08-2.08,1.16-2.66,3.36-1.45,1-1.84.84-1.89,0.81s-0.18-.74,0-1.84a1.31,1.31,0,0,0,0-.91A0.58,0.58,0,0,0,17,28.82c-0.47,0-1,.47-2.11,2a14.48,14.48,0,0,1,.88-1.76,0.47,0.47,0,0,0,.06-0.23,0.43,0.43,0,0,0-.19-0.37,0.44,0.44,0,0,0-.6.08c-3.93,4.8-6.6,5.8-7.37,5.31a0.67,0.67,0,0,1-.24-0.59,1.71,1.71,0,0,1,0-.38,13.17,13.17,0,0,0,5-3.38,4.76,4.76,0,0,0,1.64-2.88A1.36,1.36,0,0,0,14,26.15a1.08,1.08,0,0,0-1-.67c-1.41-.06-3.81,1.78-6,6.05H7Z" fill="#fff"/><path d="M45.75,16.4a0.67,0.67,0,0,0-.63.42s-2.45,6.3-2.74,7l-7.49.39a0.68,0.68,0,0,0-.64.67v0a0.67,0.67,0,0,0,.71.64l7.92-.42a0.68,0.68,0,0,0,.59-0.43l2.27-5.82L48,24.71a0.65,0.65,0,0,0,.58.42l6.19,0.35-4.77,4a0.65,0.65,0,0,0-.25.51,0.86,0.86,0,0,0,0,.17l1.54,6-5.19-3.35a0.66,0.66,0,0,0-.72,0l-5.26,3.35,1.53-5.53a0.85,0.85,0,0,0,0-.18,0.66,0.66,0,0,0-.49-0.64,0.67,0.67,0,0,0-.82.47l-2,7.21a0.67,0.67,0,0,0,.24.72,0.68,0.68,0,0,0,.76,0l6.37-4.05,6.27,4a0.67,0.67,0,0,0,.76,0,0.69,0.69,0,0,0,.28-0.54,0.94,0.94,0,0,0,0-.17S51.36,31,51.18,30.22l5.75-4.78a0.68,0.68,0,0,0,.25-0.52,0.5,0.5,0,0,0,0-.21,0.65,0.65,0,0,0-.6-0.46l-7.44-.43-2.73-7a0.66,0.66,0,0,0-.62-0.42h0Z" fill="#fff"/><polygon points="3.85 56.92 3.85 49.82 7.51 49.82 7.51 50.6 4.76 50.6 4.76 52.89 7.32 52.89 7.32 53.67 4.76 53.67 4.76 56.13 7.57 56.13 7.57 56.92 3.85 56.92 3.85 56.92" fill="#fff"/><polygon points="13.57 49.82 13.57 56.92 12.33 56.92 9.53 50.76 9.51 50.76 9.51 56.92 8.7 56.92 8.7 49.82 9.98 49.82 12.75 55.9 12.76 55.9 12.76 49.82 13.57 49.82 13.57 49.82" fill="#fff"/><polygon points="14.82 56.92 14.82 49.82 18.48 49.82 18.48 50.6 15.73 50.6 15.73 52.89 18.28 52.89 18.28 53.67 15.73 53.67 15.73 56.13 18.54 56.13 18.54 56.92 14.82 56.92 14.82 56.92" fill="#fff"/><path d="M21.59,53.66a0.93,0.93,0,0,1,1.07.9,8.32,8.32,0,0,0,.28,2.36h0.95a10.21,10.21,0,0,1-.25-1.86c-0.05-1.43-.35-1.7-1.16-1.82v0a1.53,1.53,0,0,0,1.29-1.62,1.59,1.59,0,0,0-1.7-1.77H19.63v7.1h0.9V53.66h1.06ZM20.53,50.6H21.9a1,1,0,0,1,.95,1.09,1,1,0,0,1-1,1.18H20.53V50.6h0Z" fill="#fff"/><path d="M28.15,51.72a1.1,1.1,0,0,0-1.25-1.3A1.28,1.28,0,0,0,25.59,52v2.4c0,1.55.46,1.94,1.31,1.94A2.28,2.28,0,0,0,28.16,56V53.87H26.86V53.08h2.21v3.45a4.37,4.37,0,0,1-2.17.53c-1.51,0-2.23-.78-2.23-2.75V52a2.05,2.05,0,0,1,2.23-2.32c1.53,0,2.26.56,2.21,2h-1Z" fill="#fff"/><polygon points="33.4 49.82 34.31 49.82 32.38 54.21 32.38 56.92 31.48 56.92 31.48 54.21 29.57 49.82 30.58 49.82 31.96 53.25 33.4 49.82 33.4 49.82" fill="#fff"/><path d="M37.37,54.8V55a1.13,1.13,0,0,0,1.18,1.28,1.1,1.1,0,0,0,1.27-1.15c0-1.58-3.18-1.4-3.18-3.53a1.87,1.87,0,0,1,2.08-1.93,1.75,1.75,0,0,1,2,2.07H39.75a1,1,0,0,0-1.09-1.29,1,1,0,0,0-1.09,1c0,1.56,3.19,1.34,3.19,3.59,0,1.49-1,2-2.2,2a1.88,1.88,0,0,1-2.07-2.26h0.9Z" fill="#fff"/><polygon points="45.8 49.82 45.8 50.6 43.93 50.6 43.93 56.92 43.03 56.92 43.03 50.6 41.16 50.6 41.16 49.82 45.8 49.82 45.8 49.82" fill="#fff"/><path d="M45.05,56.92H46l0.53-1.69h2.74l0.51,1.69h1l-2.3-7.1H47.3l-2.25,7.1h0ZM49,54.44H46.72l1.11-3.79h0L49,54.44h0Z" fill="#fff"/><path d="M53.43,53.66a0.93,0.93,0,0,1,1.07.9,8.12,8.12,0,0,0,.28,2.36h0.94a11.5,11.5,0,0,1-.24-1.86c0-1.43-.34-1.7-1.16-1.82v0a1.53,1.53,0,0,0,1.3-1.62,1.6,1.6,0,0,0-1.7-1.77H51.46v7.1h0.9V53.66h1.06ZM52.36,50.6h1.37a1,1,0,0,1,1,1.09,1,1,0,0,1-1,1.18H52.36V50.6h0Z" fill="#fff"/></svg>