<svg xmlns="http://www.w3.org/2000/svg" width="58" height="57" viewBox="0 0 58 57">
    <g fill="#323333" fill-rule="nonzero">
        <path d="M17.214 29.23a.947.947 0 0 1-.668-.275L1.09 13.5a.944.944 0 0 1 0-1.333L12.978.277a.944.944 0 0 1 1.333 0l15.457 15.457a.944.944 0 0 1-1.333 1.333l-14.79-14.79L3.092 12.83l14.788 14.79a.944.944 0 0 1-.665 1.61zM44.559 56.576a.947.947 0 0 1-.668-.276L28.435 40.844a.944.944 0 0 1 1.333-1.333l14.789 14.788 10.555-10.555-14.789-14.789a.944.944 0 0 1 1.333-1.333L57.113 43.08a.944.944 0 0 1 0 1.333L45.224 56.3a.94.94 0 0 1-.665.276z"/>
        <path d="M13.646 9.02a.944.944 0 0 1-.668-1.609l3.568-3.568a.944.944 0 0 1 1.333 1.334l-3.566 3.566a.941.941 0 0 1-.667.277zM18.402 11.396a.944.944 0 0 1-.668-1.609l2.378-2.377a.944.944 0 0 1 1.334 1.333l-2.377 2.378a.94.94 0 0 1-.667.275zM20.78 16.152a.944.944 0 0 1-.668-1.609l3.566-3.567a.944.944 0 0 1 1.334 1.333l-3.566 3.568a.932.932 0 0 1-.666.275zM42.18 37.553a.944.944 0 0 1-.668-1.609l3.569-3.566a.944.944 0 0 1 1.333 1.334l-3.568 3.566a.943.943 0 0 1-.665.275zM46.937 39.931a.944.944 0 0 1-.668-1.609l2.378-2.378a.944.944 0 0 1 1.333 1.334l-2.378 2.378a.946.946 0 0 1-.665.275zM49.313 44.687a.944.944 0 0 1-.668-1.609l3.568-3.567a.944.944 0 0 1 1.334 1.333l-3.568 3.568a.94.94 0 0 1-.666.275zM1.757 56.576a.943.943 0 0 1-.907-1.201L5.606 38.73a.932.932 0 0 1 .24-.408L42.497 1.67a5.705 5.705 0 0 1 8.059 0l5.163 5.163a5.705 5.705 0 0 1 0 8.059L19.07 51.544a.932.932 0 0 1-.407.24L2.017 56.54a.952.952 0 0 1-.26.036zm5.596-17.094L3.13 54.26l14.778-4.223 36.48-36.478a3.818 3.818 0 0 0 0-5.391l-5.164-5.164a3.818 3.818 0 0 0-5.391 0L7.353 39.482z"/>
        <path d="M18.402 51.82a.944.944 0 0 1-.668-1.609l36.654-36.652a3.818 3.818 0 0 0 0-5.391l-5.164-5.164a3.818 3.818 0 0 0-5.391 0L7.179 39.654a.944.944 0 0 1-1.333-1.333L42.497 1.669a5.705 5.705 0 0 1 8.059 0l5.163 5.163a5.705 5.705 0 0 1 0 8.059L19.07 51.544a.947.947 0 0 1-.667.276z"/>
        <path d="M18.402 51.82a.947.947 0 0 1-.668-.276L5.846 39.656a.944.944 0 0 1 1.333-1.334l11.888 11.889a.944.944 0 0 1-.665 1.609zM16.024 42.31a.944.944 0 0 1-.668-1.609L48.647 7.41a.944.944 0 0 1 1.333 1.333L16.691 42.032a.941.941 0 0 1-.667.277z"/>
    </g>
</svg>
