<?xml version="1.0" encoding="UTF-8"?>
<svg width="28px" height="28px" viewBox="0 0 28 28" version="1.1" xmlns="http://www.w3.org/2000/svg" xmlns:xlink="http://www.w3.org/1999/xlink">
    <!-- Generator: Sketch 52 (66869) - http://www.bohemiancoding.com/sketch -->
    <title>+</title>
    <desc>Created with Sketch.</desc>
    <g id="Water-Filter" stroke="none" stroke-width="1" fill="none" fill-rule="evenodd">
        <g id="PDP_Water_Filter_Overview_Product_Image_D" transform="translate(-120.000000, -1589.000000)" fill="#EE405A" fill-rule="nonzero">
            <g id="Specs" transform="translate(80.000000, 1324.000000)">
                <g id="+" transform="translate(40.000000, 265.000000)">
                    <path d="M13.6888889,27.3777778 C13.0019556,27.3777778 12.4444444,26.8202667 12.4444444,26.1333333 L12.4444444,1.24444444 C12.4444444,0.557511111 13.0019556,0 13.6888889,0 C14.3758222,0 14.9333333,0.557511111 14.9333333,1.24444444 L14.9333333,26.1333333 C14.9333333,26.8202667 14.3758222,27.3777778 13.6888889,27.3777778 Z" id="Shape"></path>
                    <path d="M26.1333333,14.9333333 L1.24444444,14.9333333 C0.557511111,14.9333333 0,14.3758222 0,13.6888889 C0,13.0019556 0.557511111,12.4444444 1.24444444,12.4444444 L26.1333333,12.4444444 C26.8202667,12.4444444 27.3777778,13.0019556 27.3777778,13.6888889 C27.3777778,14.3758222 26.8202667,14.9333333 26.1333333,14.9333333 Z" id="Shape"></path>
                </g>
            </g>
        </g>
    </g>
</svg>