<svg xmlns="http://www.w3.org/2000/svg" width="54" height="51" viewBox="0 0 54 51">
    <g fill="#323333" fill-rule="nonzero">
        <path d="M26.998 0C12.11 0-.002 10.082 0 22.471c0 6.408 3.296 12.472 9.074 16.751L3.71 49.07a.898.898 0 0 0 1.303 1.168l10.607-7.405a31.304 31.304 0 0 0 11.378 2.111c14.888 0 27-10.082 27-22.473 0-12.39-12.112-22.471-27-22.471zM27 43.144c-3.879 0-7.632-.727-11.156-2.162a.91.91 0 0 0-.855.096l-7.872 5.495 3.917-7.189a.9.9 0 0 0-.277-1.17c-5.694-3.956-8.959-9.695-8.959-15.743 0-11.397 11.304-20.671 25.2-20.671 13.896 0 25.2 9.274 25.2 20.671 0 11.4-11.302 20.673-25.198 20.673z"/>
        <g stroke="#323333" stroke-width=".5">
            <path d="M27.375 30.47c-.462 0-.836-.354-.836-.79v-1.52c0-1.818.75-3.529 2.114-4.814l2.644-2.495c1.048-.989 1.624-2.302 1.624-3.701v-1.52c0-2.886-2.486-5.233-5.545-5.233-3.058 0-5.545 2.347-5.545 5.232v2.008c0 .435-.374.789-.835.789-.462 0-.836-.354-.836-.789v-2.008c0-3.754 3.239-6.809 7.216-6.809 3.978 0 7.217 3.055 7.217 6.81v1.52c0 1.818-.75 3.53-2.114 4.816l-2.644 2.495c-1.048.987-1.625 2.302-1.625 3.7v1.52c0 .435-.374.788-.835.788zM27.401 35.333a1.23 1.23 0 0 1-1.229-1.229 1.23 1.23 0 0 1 2.459 0 1.23 1.23 0 0 1-1.23 1.23zm0-1.377a.15.15 0 0 0-.148.148c0 .163.295.163.295 0a.147.147 0 0 0-.147-.148z"/>
        </g>
    </g>
</svg>
