<svg xmlns="http://www.w3.org/2000/svg" width="50" height="53" viewBox="0 0 50 53">
    <g fill="#323333" fill-rule="evenodd">
        <path fill-rule="nonzero" d="M39.474 28.07a.878.878 0 0 0-.878.877v21.93H1.754V15.79h13.158a.878.878 0 0 0 .877-.877V1.754h22.807v15.351a.878.878 0 0 0 1.755 0V.877A.878.878 0 0 0 39.474 0H14.912a.9.9 0 0 0-.34.068c-.154.099-.225.134-.28.188L.255 14.291c-.04.04-.063.095-.095.142-.031.048-.072.088-.093.14a.89.89 0 0 0-.068.34v36.841c0 .485.393.878.877.878h38.597a.878.878 0 0 0 .877-.878V28.947a.878.878 0 0 0-.877-.877zM14.035 2.995v11.04H2.995l11.04-11.04zm8.772 35.163a.878.878 0 0 1 0 1.754H7.457a.878.878 0 0 1 0-1.754h15.35zm7.018-17.105a.878.878 0 0 1 0 1.754H7.456a.878.878 0 0 1 0-1.754h22.369zm-3.948 9.21a.878.878 0 0 1 0 1.755H7.457a.878.878 0 0 1 0-1.755h18.42z"/>
        <path d="M46.57 19.9l-1.834 1.835-4.103-4.104 1.834-1.834a2.889 2.889 0 0 1 2.053-.85c1.6 0 2.9 1.303 2.9 2.903 0 .775-.302 1.503-.85 2.05zM25.717 32.981c.578.168 1.433.539 2.281 1.389.85.85 1.222 1.705 1.389 2.281l-4.894 1.224 1.224-4.894zm3.546.123a7.173 7.173 0 0 0-2.47-1.631l12.575-12.576L43.471 23 30.895 35.576a7.187 7.187 0 0 0-1.632-2.472zm15.255-19.946a4.662 4.662 0 0 0-3.316 1.374L24.42 31.315c-.012.014-.014.034-.026.048a.836.836 0 0 0-.174.306c-.007.024-.029.04-.034.061l-1.79 7.158a.894.894 0 0 0 1.085 1.086l7.158-1.79c.02-.005.034-.024.053-.032a.878.878 0 0 0 .322-.18c.011-.011.029-.013.04-.024l16.783-16.782a4.657 4.657 0 0 0 1.374-3.318 4.697 4.697 0 0 0-4.692-4.69z"/>
    </g>
</svg>
