<?xml version="1.0" encoding="UTF-8"?>
<svg width="36px" height="38px" viewBox="0 0 36 38" version="1.1" xmlns="http://www.w3.org/2000/svg" xmlns:xlink="http://www.w3.org/1999/xlink">
    <!-- Generator: sketchtool 52.2 (67145) - http://www.bohemiancoding.com/sketch -->
    <title>11A379AD-6DE2-4BFF-BD6E-73C8CD3E6DEB</title>
    <desc>Created with sketchtool.</desc>
    <g id="Range" stroke="none" stroke-width="1" fill="none" fill-rule="evenodd">
        <g id="PDP---Range-Default" transform="translate(-1105.000000, -747.000000)" fill="#EE405A">
            <g id="Callout-Bar" transform="translate(0.000000, 715.000000)">
                <g id="Group" transform="translate(144.000000, 29.000000)">
                    <g id="Quick-Start-Guid-Copy" transform="translate(955.000000, 0.000000)">
                        <g id="Register" transform="translate(6.000000, 3.000000)">
                            <path d="M28.4210526,20.2105263 C28.0724211,20.2105263 27.7894737,20.4934737 27.7894737,20.8421053 L27.7894737,36.6315789 L1.26315789,36.6315789 L1.26315789,11.3684211 L10.7368421,11.3684211 C11.0854737,11.3684211 11.3684211,11.0854737 11.3684211,10.7368421 L11.3684211,1.26315789 L27.7894737,1.26315789 L27.7894737,12.3157895 C27.7894737,12.6644211 28.0724211,12.9473684 28.4210526,12.9473684 C28.7696842,12.9473684 29.0526316,12.6644211 29.0526316,12.3157895 L29.0526316,0.631578947 C29.0526316,0.282947368 28.7696842,0 28.4210526,0 L10.7368421,0 C10.6522105,0 10.5688421,0.0176842105 10.4917895,0.0492631579 C10.3806316,0.12 10.3301053,0.145263158 10.2896842,0.184421053 L0.184421053,10.2896842 C0.155368421,10.3187368 0.138947368,10.3578947 0.116210526,10.392 C0.0934736842,10.4261053 0.0644210526,10.4551579 0.0492631579,10.4930526 C0.0176842105,10.5701053 0,10.6522105 0,10.7368421 L0,37.2631579 C0,37.6117895 0.282947368,37.8947368 0.631578947,37.8947368 L28.4210526,37.8947368 C28.7696842,37.8947368 29.0526316,37.6117895 29.0526316,37.2631579 L29.0526316,20.8421053 C29.0526316,20.4934737 28.7696842,20.2105263 28.4210526,20.2105263 Z M10.1052632,2.15621053 L10.1052632,10.1052632 L2.15621053,10.1052632 L10.1052632,2.15621053 Z M16.4210526,27.4736842 C16.7696842,27.4736842 17.0526316,27.7566316 17.0526316,28.1052632 C17.0526316,28.4538947 16.7696842,28.7368421 16.4210526,28.7368421 L5.36842105,28.7368421 C5.01978947,28.7368421 4.73684211,28.4538947 4.73684211,28.1052632 C4.73684211,27.7566316 5.01978947,27.4736842 5.36842105,27.4736842 L16.4210526,27.4736842 Z M21.4736842,15.1578947 C21.8223158,15.1578947 22.1052632,15.4408421 22.1052632,15.7894737 C22.1052632,16.1381053 21.8223158,16.4210526 21.4736842,16.4210526 L5.36842105,16.4210526 C5.01978947,16.4210526 4.73684211,16.1381053 4.73684211,15.7894737 C4.73684211,15.4408421 5.01978947,15.1578947 5.36842105,15.1578947 L21.4736842,15.1578947 Z M18.6315789,21.7894737 C18.9802105,21.7894737 19.2631579,22.0724211 19.2631579,22.4210526 C19.2631579,22.7696842 18.9802105,23.0526316 18.6315789,23.0526316 L5.36842105,23.0526316 C5.01978947,23.0526316 4.73684211,22.7696842 4.73684211,22.4210526 C4.73684211,22.0724211 5.01978947,21.7894737 5.36842105,21.7894737 L18.6315789,21.7894737 Z" id="Shape" fill-rule="nonzero"></path>
                            <path d="M33.5307461,14.3282844 L32.2101608,15.6488697 L29.255915,12.6946239 L30.5765002,11.3740386 C30.9720316,10.9797956 31.4964006,10.7620601 32.0542673,10.7620601 C33.2060754,10.7620601 34.1427246,11.6999977 34.1427246,12.8518057 C34.1427246,13.4096725 33.9249891,13.9340414 33.5307461,14.3282844 Z M18.5160138,23.746312 C18.9321592,23.8674193 19.5480029,24.1341131 20.158693,24.7460917 C20.7706716,25.3580702 21.0386537,25.9739138 21.1584727,26.3887709 L17.6347647,27.27002 L18.5160138,23.746312 Z M21.0695748,23.8352099 C20.4537311,23.2180779 19.8211386,22.868928 19.2916161,22.6602111 L28.3450332,13.6055056 L31.2992791,16.5597514 L22.2445735,25.614457 C22.0358567,25.0836461 21.6854184,24.4510536 21.0695748,23.8352099 Z M32.052979,9.47368421 C31.1511159,9.47368421 30.3046529,9.82541082 29.6656185,10.4631569 L17.5819413,22.5468341 C17.5729227,22.5571411 17.5716343,22.5713132 17.5626157,22.5816202 C17.5059271,22.6447506 17.4646991,22.718188 17.4376432,22.8019325 C17.4324897,22.8186814 17.4170292,22.8302767 17.4131641,22.8457373 L16.1247882,27.9992407 C16.069388,28.2182646 16.1338068,28.4514606 16.2935654,28.6112192 C16.4159612,28.7336149 16.5808733,28.7993221 16.7496505,28.7993221 C16.8011855,28.7993221 16.8540089,28.7941686 16.905544,28.7812848 L22.0590474,27.492909 C22.0732196,27.4890439 22.0835266,27.4748717 22.0976987,27.4697182 C22.1853083,27.4413739 22.2638992,27.3988575 22.3296064,27.3395923 C22.3373366,27.331862 22.3502204,27.3305736 22.3579506,27.3228434 L34.4416278,15.2391662 C35.0793739,14.6027085 35.4311005,13.7536688 35.4311005,12.8505173 C35.4311005,10.9888142 33.9146821,9.47368421 32.052979,9.47368421 Z" id="Fill-1" transform="translate(25.768182, 19.136503) rotate(-360.000000) translate(-25.768182, -19.136503) "></path>
                        </g>
                    </g>
                </g>
            </g>
        </g>
    </g>
</svg>