<svg xmlns="http://www.w3.org/2000/svg" width="50" height="51" viewBox="0 0 50 51">
    <g fill="#323333" fill-rule="evenodd">
        <path d="M6.229 50.56a6.09 6.09 0 0 1-4.281-1.771l-.193-.202A6.072 6.072 0 0 1 0 44.331a6.09 6.09 0 0 1 1.771-4.281l14.322-12.92c.191-.172.438-.268.696-.268.83 0 1.613-.324 2.2-.913a1.041 1.041 0 0 1 1.47 0 1.041 1.041 0 0 1 0 1.47 5.162 5.162 0 0 1-3.253 1.503L3.2 41.555c-.7.702-1.123 1.724-1.123 2.768 0 1.052.423 2.074 1.162 2.813l.193.201c1.46 1.46 4.117 1.466 5.602-.016a18428.405 18428.405 0 0 1 12.783-13.796c.1-1.23.625-2.37 1.503-3.248a1.04 1.04 0 0 1 1.468 1.472 3.09 3.09 0 0 0-.911 2.201c0 .276-.11.54-.303.735-.21.222-13.045 14.077-13.045 14.077-1.17 1.169-2.687 1.798-4.3 1.798M29.586 25.126c-.266 0-.531-.101-.735-.303a1.041 1.041 0 0 1 0-1.47L40.79 11.415c.196-.193.46-.303.735-.303h2.473l3.532-7.061-1.02-1.02-7.06 3.532v2.473c0 .276-.11.54-.304.735L27.207 21.709a1.041 1.041 0 0 1-1.47 0 1.041 1.041 0 0 1 0-1.47L37.372 8.606V5.922c0-.393.222-.752.573-.929L46.25.841c.4-.197.884-.12 1.2.193l2.076 2.076c.316.318.394.8.193 1.2l-4.152 8.305a1.04 1.04 0 0 1-.928.573h-2.685L30.321 24.823c-.203.202-.469.303-.735.303"/>
        <path d="M13.31 18.922c1.38 0 2.727.554 3.718 1.57l26.28 27.017c.625.623 1.47.974 2.37.974 1.145 0 2.075-.93 2.075-2.076a3.34 3.34 0 0 0-.986-2.38L19.63 17.63a5.22 5.22 0 0 1-1.499-4.556c.5-3.145-.303-5.796-2.39-7.88-1.58-1.58-3.569-2.467-5.535-2.384a8.072 8.072 0 0 0-3.733 1.01l5.481 3.29c.314.184.505.525.505.888a7.716 7.716 0 0 1-4.29 6.939l-.437.22a1.042 1.042 0 0 1-.997-.04L2.17 12.38a8.209 8.209 0 0 0 2.168 4.426 8.221 8.221 0 0 0 6.044 2.61c.122 0 .523-.029 1.582-.315.444-.12.897-.179 1.345-.179m32.368 31.637a5.407 5.407 0 0 1-3.847-1.592L15.54 21.939a3.107 3.107 0 0 0-3.036-.835c-.98.266-1.655.388-2.122.388a10.43 10.43 0 0 1-7.555-3.26A10.299 10.299 0 0 1 .02 10.49c.018-.358.224-.681.537-.852.326-.178.762-.193 1.074-.004l5.68 3.41a5.647 5.647 0 0 0 3.042-4.473L4.01 4.762a1.042 1.042 0 0 1-.505-.818c-.02-.338.12-.666.385-.88C5.719 1.588 7.886.784 10.16.732c2.66-.101 5.064 1.012 7.048 2.992 2.546 2.544 3.576 5.89 2.976 9.673a3.132 3.132 0 0 0 .892 2.743l27.149 26.41a5.413 5.413 0 0 1 1.605 3.855 4.158 4.158 0 0 1-4.153 4.154"/>
    </g>
</svg>
