<?xml version="1.0" encoding="UTF-8"?>
<svg width="12px" height="12px" viewBox="0 0 12 12" version="1.1" xmlns="http://www.w3.org/2000/svg" xmlns:xlink="http://www.w3.org/1999/xlink">
    <!-- Generator: sketchtool 48.2 (47327) - http://www.bohemiancoding.com/sketch -->
    <title>A604D1CB-CC05-412B-B8CE-4F9727B2EC20</title>
    <desc>Created with sketchtool.</desc>
    <defs></defs>
    <g id="Nav-Default-State" stroke="none" stroke-width="1" fill="none" fill-rule="evenodd" transform="translate(-1168.000000, -17.000000)">
        <g fill="#EE405A" fill-rule="nonzero" id="Butler-Bar">
            <g>
                <g id="Nav-Search-Field-Default-State" transform="translate(1161.000000, 8.000000)">
                    <g id="Search" transform="translate(7.000000, 9.000000)">
                        <path d="M11.79,11.3965436 L7.77638295,7.31419962 C8.40351061,6.54876012 8.77978721,5.54943634 8.77978721,4.46506372 C8.77978721,1.99864757 6.81478721,0 4.3898936,0 C1.96499999,0 0,1.99864757 0,4.46506372 C0,6.93147987 1.96499999,8.93012744 4.3898936,8.93012744 C5.45601062,8.93012744 6.41760636,8.54740769 7.19106381,7.90954145 L11.2046808,11.9918854 L11.79,11.3965436 Z M0.83617021,4.46506372 C0.83617021,2.46641615 2.42489361,0.850488327 4.3898936,0.850488327 C6.3548936,0.850488327 7.943617,2.46641615 7.943617,4.46506372 C7.943617,6.46371129 6.3548936,8.07963911 4.3898936,8.07963911 C2.42489361,8.07963911 0.83617021,6.46371129 0.83617021,4.46506372 Z" id="Shape"></path>
                    </g>
                </g>
            </g>
        </g>
    </g>
</svg>