<svg xmlns="http://www.w3.org/2000/svg" width="30" height="22" viewBox="0 0 30 22">
    <path fill="#EE405A" fill-rule="nonzero" d="M5.357 0C2.395 0 0 2.46 0 5.5v11C0 19.54 2.395 22 5.357 22h19.286C27.605 22 30 19.54 30 16.5v-11C30 2.46 27.605 0 24.643 0H5.357zm.868 2h17.55C26.121 2 28 3.851 28 6.163v9.605c0 2.312-1.879 4.163-4.225 4.163H6.225C3.879 19.931 2 18.08 2 15.768V6.163C2 3.85 3.879 2 6.225 2zm6.021 5.003a.283.283 0 0 0-.246.27v7.224a.282.282 0 0 0 .246.278.304.304 0 0 0 .192-.035l6.42-3.612a.276.276 0 0 0 .142-.24.276.276 0 0 0-.143-.238l-6.42-3.612a.304.304 0 0 0-.19-.035z"/>
</svg>
